<svg xmlns="http://www.w3.org/2000/svg" width="1120" height="286" viewBox="0 -16 1120 286" role="img" aria-labelledby="title desc"><title id="title">Everplain, in good company</title><desc id="desc">Five original Everplain user appearances: sand, mo, xiaoping, hime and cat. Original vector layers, transparent background.</desc><g transform="translate(18 54) scale(0.83)"><defs><radialGradient id="hero-sand-f" cx="42%" cy="40%" r="70%"><stop offset="0%" stop-color="#fffaf5" /><stop offset="100%" stop-color="#f6ece2" /></radialGradient><linearGradient id="hero-sand-s" x1="0" y1="0" x2="0" y2="1"><stop offset="0%" stop-color="#ece8df" /><stop offset="100%" stop-color="#d9d3c6" /></linearGradient><linearGradient id="hero-sand-sf" x1="0" y1="0" x2="0" y2="1"><stop offset="0%" stop-color="#f1ede5" /><stop offset="100%" stop-color="#e0dace" /></linearGradient><linearGradient id="hero-sand-h" x1="0" y1="0" x2="0" y2="1"><stop offset="0%" stop-color="#fffaf5" /><stop offset="100%" stop-color="#f0dccb" /></linearGradient><clipPath id="hero-sand-face-clip"><ellipse cx="100" cy="127" rx="57" ry="52" /></clipPath><filter id="hero-sand-soft-edge" x="-20%" y="-30%" width="140%" height="160%"><feGaussianBlur stdDeviation="0.8" /></filter><filter id="hero-sand-soft" x="-20%" y="-50%" width="140%" height="200%"><feGaussianBlur stdDeviation="3" /></filter></defs><g><g><g><g><path d="M26 122 C20 60 58 28 102 28 C148 28 184 60 174 124 C172 138 166 148 158 154 C140 188 60 188 44 154 C36 148 28 138 26 122 Z" fill="#d8bd8c" /></g></g><g><ellipse cx="100" cy="127" rx="57" ry="52" fill="url(#hero-sand-f)" /></g><g><ellipse cx="64" cy="153" rx="12" ry="7" fill="#f5c3ba" opacity="0.85" filter="url(#hero-sand-soft-edge)" /><ellipse cx="136" cy="153" rx="12" ry="7" fill="#f5c3ba" opacity="0.85" filter="url(#hero-sand-soft-edge)" /></g><g><g><rect x="72.5" y="112" width="12.5" height="33" rx="6.25" fill="#2b221e" /><rect x="115" y="112" width="12.5" height="33" rx="6.25" fill="#2b221e" /></g><g display="none"><path d="M71 132 Q79 120 87 132" /><path d="M114 132 Q122 120 130 132" /></g></g><g><path d="M32 110 C28 56 62 30 102 30 C146 30 174 58 170 112 C158 92 134 82 104 82 C76 82 50 92 32 110 Z" fill="#ead3a6" /></g><g><path clip-path="url(#hero-sand-face-clip)" d="M50 100 C72 112 130 112 152 102 L150 116 C128 124 74 124 52 114 Z" fill="#f0dccb" opacity=".3" filter="url(#hero-sand-soft-edge)" /><path d="M32 110 C46 90 74 82 104 82 C134 82 158 92 170 112 C162 106 154 104 146 106 C138 100 128 102 120 104 C112 100 102 102 96 104 C88 100 78 102 70 106 C62 102 52 104 46 108 C40 106 36 108 32 110 Z" fill="#ead3a6" /><g><path d="M44 92 C54 102 58 120 54 140 C50 126 42 116 30 112 C32 102 38 96 44 92 Z" fill="#ead3a6" /><path d="M58 80 C72 92 78 108 74 130 C68 116 60 108 48 104 C50 94 52 86 58 80 Z" fill="#ead3a6" /><path d="M62 90 C68 98 72 108 72 120 C66 110 60 104 54 100 Z" fill="#d6b986" /></g><g><path d="M76 72 C90 84 94 100 90 122 C84 108 78 100 66 96 C68 86 72 78 76 72 Z" fill="#ead3a6" /><path d="M96 70 C110 82 112 100 106 118 C102 104 94 96 84 92 C88 84 92 76 96 70 Z" fill="#ead3a6" /></g><g><path d="M114 72 C130 80 136 98 132 120 C126 106 118 98 106 94 C108 86 110 78 114 72 Z" fill="#ead3a6" /><path d="M134 78 C150 88 156 106 152 128 C146 114 138 106 126 102 C128 92 130 84 134 78 Z" fill="#ead3a6" /><path d="M152 90 C166 100 170 118 166 138 C160 124 152 116 142 112 C144 104 148 96 152 90 Z" fill="#ead3a6" /><path d="M136 90 C144 98 148 108 148 118 C142 110 136 104 130 100 Z" fill="#d6b986" /></g></g><g><g><path d="M40 98 C30 120 30 144 38 164 C30 158 24 142 24 126 C24 112 30 104 40 98 Z" fill="#ead3a6" /></g><g><g transform="translate(200 0) scale(-1 1)"><path d="M40 98 C30 120 30 144 38 164 C30 158 24 142 24 126 C24 112 30 104 40 98 Z" fill="#ead3a6" /></g></g></g><g><g><path d="M100 34 C90 8 114 -4 132 6 C146 14 142 36 122 36 C134 26 130 14 118 14 C108 14 104 22 106 34 Z" fill="#ead3a6" /><path d="M110 24 C114 14 126 12 132 18 C124 16 116 18 112 28 Z" fill="#d6b986" /></g></g><g><g transform="translate(0 -4)"><path d="M48 122 L14 104 C18 128 30 148 50 150 Z" fill="#f3dfcf" /><path d="M42 128 L24 118" fill="none" stroke="#e0c3ae" stroke-width="2.6" stroke-linecap="round" /><g transform="translate(200 0) scale(-1 1)"><path d="M48 122 L14 104 C18 128 30 148 50 150 Z" fill="#f3dfcf" /><path d="M42 128 L24 118" fill="none" stroke="#e0c3ae" stroke-width="2.6" stroke-linecap="round" /></g></g></g></g><g><path fill="url(#hero-sand-s)" d="M-4 216 C0 196 18 184 44 180 C72 176 104 174 126 176 L124 204 C100 208 60 212 30 216 Z" /><path d="M60 182 C70 188 76 196 78 206" fill="none" stroke="#b9b0a1" stroke-width="1.4" stroke-linecap="round" opacity=".45" /><path d="M96 178 C102 184 106 192 106 201" fill="none" stroke="#b9b0a1" stroke-width="1.4" stroke-linecap="round" opacity=".45" /><path d="M124 175 C131 173 138 174 142 177 C145 186 145 196 141 203 C135 205 128 205 123 203 C126 194 126 184 124 175 Z" fill="#efe8dd" /><path d="M130 176 C131 185 131 194 129 203 M135 176 C136 185 136 194 134 204 M139.5 177 C140.5 186 140.5 195 138.5 203" fill="none" stroke="#d9cfc1" stroke-width="1" stroke-linecap="round" /><path fill="url(#hero-sand-h)" d="M140 179 C150 176 160 178 165 184 C169 189 168 196 163 199 C157 202 149 202 142 200 C144 193 144 186 140 179 Z" /><path d="M150 184 C153 188 154 193 153 198 M156.5 185.5 C159.5 189 160.5 193 159.5 197.5" fill="none" stroke="#dcbfa9" stroke-width="1.2" stroke-linecap="round" /><ellipse cx="112" cy="181" rx="44" ry="6" fill="#b9b0a1" opacity=".3" filter="url(#hero-sand-soft)" /><path fill="url(#hero-sand-sf)" d="M224 218 C222 200 206 188 182 186 C156 184 126 184 104 187 L104 214 C130 216 170 218 224 218 Z" /><path d="M160 189 C152 194 148 202 147 212" fill="none" stroke="#b9b0a1" stroke-width="1.4" stroke-linecap="round" opacity=".45" /><path d="M190 190 C184 196 181 204 181 214" fill="none" stroke="#b9b0a1" stroke-width="1.4" stroke-linecap="round" opacity=".45" /><path d="M106 186 C99 185 92 187 88 190 C85 199 85 207 88 213 C94 215 101 215 106 213 C104 205 104 194 106 186 Z" fill="#efe8dd" /><path d="M100.5 187 C99.5 196 99.5 205 100.5 213.5 M96 188 C95 197 95 206 96 214 M91.5 189 C90.5 198 90.5 206 91.5 213" fill="none" stroke="#d9cfc1" stroke-width="1" stroke-linecap="round" /><path fill="url(#hero-sand-h)" d="M90 190 C80 187 69 189 64 195 C60 200 61 206 66 209 C72 212 81 212 89 210 C87 203 87 196 90 190 Z" /><path d="M79 194 C76 198 75 203 76 208 M72 196 C69 199 68 203 69 207" fill="none" stroke="#dcbfa9" stroke-width="1.2" stroke-linecap="round" /></g></g><g display="none"><path d="M0 0 C6 -8 16 -8 20 0 C16 8 6 8 0 0 Z" fill="#8fb27a" /><path d="M2 0 L18 0" stroke="#6f9160" stroke-width="1.2" /></g></g><g transform="translate(197 25) scale(0.97)"><defs><radialGradient id="hero-mo-f" cx="42%" cy="40%" r="70%"><stop offset="0%" stop-color="#fffaf5" /><stop offset="100%" stop-color="#f6ece2" /></radialGradient><linearGradient id="hero-mo-s" x1="0" y1="0" x2="0" y2="1"><stop offset="0%" stop-color="#7d9183" /><stop offset="100%" stop-color="#5f7466" /></linearGradient><linearGradient id="hero-mo-sf" x1="0" y1="0" x2="0" y2="1"><stop offset="0%" stop-color="#8a9d90" /><stop offset="100%" stop-color="#6a7f71" /></linearGradient><linearGradient id="hero-mo-h" x1="0" y1="0" x2="0" y2="1"><stop offset="0%" stop-color="#fffaf5" /><stop offset="100%" stop-color="#f0dccb" /></linearGradient><clipPath id="hero-mo-face-clip"><ellipse cx="100" cy="127" rx="57" ry="52" /></clipPath><filter id="hero-mo-soft-edge" x="-20%" y="-30%" width="140%" height="160%"><feGaussianBlur stdDeviation="0.8" /></filter><filter id="hero-mo-soft" x="-20%" y="-50%" width="140%" height="200%"><feGaussianBlur stdDeviation="3" /></filter></defs><g><g><g><g><path d="M20 120 C14 54 56 20 102 20 C152 20 190 56 182 124 C180 156 188 182 196 214 L6 214 C16 182 24 156 20 120 Z" fill="#2b2624" /></g></g><g><ellipse cx="100" cy="127" rx="57" ry="52" fill="url(#hero-mo-f)" /></g><g><ellipse cx="64" cy="153" rx="12" ry="7" fill="#f5c3ba" opacity="0.85" filter="url(#hero-mo-soft-edge)" /><ellipse cx="136" cy="153" rx="12" ry="7" fill="#f5c3ba" opacity="0.85" filter="url(#hero-mo-soft-edge)" /></g><g><g><rect x="72.5" y="112" width="12.5" height="33" rx="6.25" fill="#2b221e" /><rect x="115" y="112" width="12.5" height="33" rx="6.25" fill="#2b221e" /></g><g display="none"><path d="M71 132 Q79 120 87 132" /><path d="M114 132 Q122 120 130 132" /></g></g><g><path d="M32 110 C28 56 62 30 102 30 C146 30 174 58 170 112 C158 92 134 82 104 82 C76 82 50 92 32 110 Z" fill="#3a3330" /></g><g><path clip-path="url(#hero-mo-face-clip)" d="M50 100 C72 112 130 112 152 102 L150 116 C128 124 74 124 52 114 Z" fill="#f0dccb" opacity=".3" filter="url(#hero-mo-soft-edge)" /><path d="M32 110 C46 90 74 82 104 82 C134 82 158 92 170 112 C162 106 154 104 146 106 C138 100 128 102 120 104 C112 100 102 102 96 104 C88 100 78 102 70 106 C62 102 52 104 46 108 C40 106 36 108 32 110 Z" fill="#3a3330" /><g><path d="M44 92 C54 102 60 118 58 136 C52 122 42 114 32 112 C34 104 38 96 44 92 Z" fill="#3a3330" /></g><g><path d="M60 78 C78 88 86 106 84 128 C78 114 68 106 52 102 C52 92 55 84 60 78 Z" fill="#3a3330" /><path d="M70 90 C78 98 82 108 82 120 C76 110 70 104 62 100 Z" fill="#4a413c" /></g><g><path d="M80 72 C104 78 114 98 108 122 C102 108 92 100 78 96 C78 88 78 80 80 72 Z" fill="#3a3330" /><path d="M108 72 C134 76 148 94 150 120 C140 106 128 98 112 96 C114 88 112 80 108 72 Z" fill="#3a3330" /><path d="M140 82 C156 92 164 108 162 128 C156 116 148 110 138 108 C140 100 140 90 140 82 Z" fill="#3a3330" /></g></g><g><g><path d="M40 98 C34 128 36 162 47 196 C36 190 26 166 24 136 C23 118 30 104 40 98 Z" fill="#3a3330" /></g><g><path d="M160 98 C166 128 164 162 153 196 C164 190 174 166 176 136 C177 118 170 104 160 98 Z" fill="#3a3330" /></g></g><g><path d="M30 118 C26 52 62 22 102 22 C142 22 176 52 170 118" fill="none" stroke="#3d3d3a" stroke-width="9" stroke-linecap="round" /><rect x="16" y="104" width="24" height="44" rx="11" fill="#3d3d3a" /><rect x="160" y="104" width="24" height="44" rx="11" fill="#3d3d3a" /><rect x="22" y="110" width="8" height="32" rx="4" fill="#5c5c58" /><rect x="170" y="110" width="8" height="32" rx="4" fill="#5c5c58" /></g></g><g><path fill="url(#hero-mo-s)" d="M-4 216 C0 196 18 184 44 180 C72 176 104 174 126 176 L124 204 C100 208 60 212 30 216 Z" /><path d="M60 182 C70 188 76 196 78 206" fill="none" stroke="#4d5f53" stroke-width="1.4" stroke-linecap="round" opacity=".45" /><path d="M96 178 C102 184 106 192 106 201" fill="none" stroke="#4d5f53" stroke-width="1.4" stroke-linecap="round" opacity=".45" /><path d="M124 175 C131 173 138 174 142 177 C145 186 145 196 141 203 C135 205 128 205 123 203 C126 194 126 184 124 175 Z" fill="#efe8dd" /><path d="M130 176 C131 185 131 194 129 203 M135 176 C136 185 136 194 134 204 M139.5 177 C140.5 186 140.5 195 138.5 203" fill="none" stroke="#d9cfc1" stroke-width="1" stroke-linecap="round" /><path fill="url(#hero-mo-h)" d="M140 179 C150 176 160 178 165 184 C169 189 168 196 163 199 C157 202 149 202 142 200 C144 193 144 186 140 179 Z" /><path d="M150 184 C153 188 154 193 153 198 M156.5 185.5 C159.5 189 160.5 193 159.5 197.5" fill="none" stroke="#dcbfa9" stroke-width="1.2" stroke-linecap="round" /><ellipse cx="112" cy="181" rx="44" ry="6" fill="#4d5f53" opacity=".3" filter="url(#hero-mo-soft)" /><path fill="url(#hero-mo-sf)" d="M224 218 C222 200 206 188 182 186 C156 184 126 184 104 187 L104 214 C130 216 170 218 224 218 Z" /><path d="M160 189 C152 194 148 202 147 212" fill="none" stroke="#4d5f53" stroke-width="1.4" stroke-linecap="round" opacity=".45" /><path d="M190 190 C184 196 181 204 181 214" fill="none" stroke="#4d5f53" stroke-width="1.4" stroke-linecap="round" opacity=".45" /><path d="M106 186 C99 185 92 187 88 190 C85 199 85 207 88 213 C94 215 101 215 106 213 C104 205 104 194 106 186 Z" fill="#efe8dd" /><path d="M100.5 187 C99.5 196 99.5 205 100.5 213.5 M96 188 C95 197 95 206 96 214 M91.5 189 C90.5 198 90.5 206 91.5 213" fill="none" stroke="#d9cfc1" stroke-width="1" stroke-linecap="round" /><path fill="url(#hero-mo-h)" d="M90 190 C80 187 69 189 64 195 C60 200 61 206 66 209 C72 212 81 212 89 210 C87 203 87 196 90 190 Z" /><path d="M79 194 C76 198 75 203 76 208 M72 196 C69 199 68 203 69 207" fill="none" stroke="#dcbfa9" stroke-width="1.2" stroke-linecap="round" /></g></g><g fill="#6b6f68"><g display="none"><path transform="translate(184 92)" d="M0 0 L0 -16 L10 -19 L10 -4" fill="none" stroke="#6b6f68" stroke-width="2.4" stroke-linecap="round" /><ellipse cx="181.5" cy="92" rx="4" ry="3" /><ellipse cx="191.5" cy="89" rx="4" ry="3" /></g><g display="none"><path transform="translate(196 92)" d="M0 0 L0 -16 L10 -19 L10 -4" fill="none" stroke="#6b6f68" stroke-width="2.4" stroke-linecap="round" /><ellipse cx="193.5" cy="92" rx="4" ry="3" /><ellipse cx="203.5" cy="89" rx="4" ry="3" /></g></g></g><g transform="translate(409 0) scale(1.11)"><defs><radialGradient id="hero-xiaoping-f" cx="42%" cy="40%" r="70%"><stop offset="0%" stop-color="#fffaf5" /><stop offset="100%" stop-color="#f6ece2" /></radialGradient><linearGradient id="hero-xiaoping-s" x1="0" y1="0" x2="0" y2="1"><stop offset="0%" stop-color="#8592a8" /><stop offset="100%" stop-color="#66728a" /></linearGradient><linearGradient id="hero-xiaoping-sf" x1="0" y1="0" x2="0" y2="1"><stop offset="0%" stop-color="#909db2" /><stop offset="100%" stop-color="#707d94" /></linearGradient><linearGradient id="hero-xiaoping-h" x1="0" y1="0" x2="0" y2="1"><stop offset="0%" stop-color="#fffaf5" /><stop offset="100%" stop-color="#f0dccb" /></linearGradient><clipPath id="hero-xiaoping-face-clip"><ellipse cx="100" cy="127" rx="57" ry="52" /></clipPath><filter id="hero-xiaoping-soft-edge" x="-20%" y="-30%" width="140%" height="160%"><feGaussianBlur stdDeviation="0.8" /></filter><filter id="hero-xiaoping-soft" x="-20%" y="-50%" width="140%" height="200%"><feGaussianBlur stdDeviation="3" /></filter></defs><g><g><g><g><path d="M20 120 C14 54 56 20 102 20 C152 20 190 56 182 124 C180 156 188 182 196 214 L6 214 C16 182 24 156 20 120 Z" fill="#d9c7b0" /></g></g><g><ellipse cx="100" cy="127" rx="57" ry="52" fill="url(#hero-xiaoping-f)" /></g><g><ellipse cx="64" cy="153" rx="12" ry="7" fill="#f5c3ba" opacity="0.85" filter="url(#hero-xiaoping-soft-edge)" /><ellipse cx="136" cy="153" rx="12" ry="7" fill="#f5c3ba" opacity="0.85" filter="url(#hero-xiaoping-soft-edge)" /></g><g><g><rect x="72.5" y="112" width="12.5" height="33" rx="6.25" fill="#2b221e" /><rect x="115" y="112" width="12.5" height="33" rx="6.25" fill="#2b221e" /></g><g display="none"><path d="M71 132 Q79 120 87 132" /><path d="M114 132 Q122 120 130 132" /></g></g><g><path d="M32 110 C28 56 62 30 102 30 C146 30 174 58 170 112 C158 92 134 82 104 82 C76 82 50 92 32 110 Z" fill="#e6d8c5" /></g><g><path clip-path="url(#hero-xiaoping-face-clip)" d="M50 100 C72 112 130 112 152 102 L150 116 C128 124 74 124 52 114 Z" fill="#f0dccb" opacity=".3" filter="url(#hero-xiaoping-soft-edge)" /><path d="M32 110 C46 90 74 82 104 82 C134 82 158 92 170 112 C162 106 154 104 146 106 C138 100 128 102 120 104 C112 100 102 102 96 104 C88 100 78 102 70 106 C62 102 52 104 46 108 C40 106 36 108 32 110 Z" fill="#e6d8c5" /><g><path d="M44 92 C54 102 60 118 58 136 C52 122 42 114 32 112 C34 104 38 96 44 92 Z" fill="#e6d8c5" /></g><g><path d="M60 78 C78 88 86 106 84 128 C78 114 68 106 52 102 C52 92 55 84 60 78 Z" fill="#e6d8c5" /><path d="M70 90 C78 98 82 108 82 120 C76 110 70 104 62 100 Z" fill="#d6c3aa" /></g><g><path d="M80 72 C104 78 114 98 108 122 C102 108 92 100 78 96 C78 88 78 80 80 72 Z" fill="#e6d8c5" /><path d="M108 72 C134 76 148 94 150 120 C140 106 128 98 112 96 C114 88 112 80 108 72 Z" fill="#e6d8c5" /><path d="M140 82 C156 92 164 108 162 128 C156 116 148 110 138 108 C140 100 140 90 140 82 Z" fill="#e6d8c5" /></g></g><g><g><path d="M40 98 C34 128 36 162 47 196 C36 190 26 166 24 136 C23 118 30 104 40 98 Z" fill="#e6d8c5" /></g><g><path d="M160 98 C166 128 164 162 153 196 C164 190 174 166 176 136 C177 118 170 104 160 98 Z" fill="#e6d8c5" /></g></g><g><g><path d="M98 32 C92 14 98 0 114 -4 C106 4 104 14 108 26 C112 18 120 14 128 16 C118 20 110 28 106 36 Z" fill="#e6d8c5" /></g></g><g><g fill="#b97f5d"><path d="M150 86 L166 136 L156 132 L150 142 L142 92 Z" /><path d="M156 116 l1.6 4 4 1.6 -4 1.6 -1.6 4 -1.6 -4 -4 -1.6 4 -1.6 Z" fill="#fff4e6" /></g><g transform="translate(150 78)"><ellipse cx="0" cy="-9" rx="3.6" ry="9" transform="rotate(0)" fill="#c98a63" /><ellipse cx="0" cy="-9" rx="3.6" ry="9" transform="rotate(45)" fill="#c98a63" /><ellipse cx="0" cy="-9" rx="3.6" ry="9" transform="rotate(90)" fill="#c98a63" /><ellipse cx="0" cy="-9" rx="3.6" ry="9" transform="rotate(135)" fill="#c98a63" /><ellipse cx="0" cy="-9" rx="3.6" ry="9" transform="rotate(180)" fill="#c98a63" /><ellipse cx="0" cy="-9" rx="3.6" ry="9" transform="rotate(225)" fill="#c98a63" /><ellipse cx="0" cy="-9" rx="3.6" ry="9" transform="rotate(270)" fill="#c98a63" /><ellipse cx="0" cy="-9" rx="3.6" ry="9" transform="rotate(315)" fill="#c98a63" /><circle r="4" fill="#f0c9a6" /></g></g></g><g><path fill="url(#hero-xiaoping-s)" d="M-4 216 C0 196 18 184 44 180 C72 176 104 174 126 176 L124 204 C100 208 60 212 30 216 Z" /><path d="M60 182 C70 188 76 196 78 206" fill="none" stroke="#56617a" stroke-width="1.4" stroke-linecap="round" opacity=".45" /><path d="M96 178 C102 184 106 192 106 201" fill="none" stroke="#56617a" stroke-width="1.4" stroke-linecap="round" opacity=".45" /><path d="M124 175 C131 173 138 174 142 177 C145 186 145 196 141 203 C135 205 128 205 123 203 C126 194 126 184 124 175 Z" fill="#efe8dd" /><path d="M130 176 C131 185 131 194 129 203 M135 176 C136 185 136 194 134 204 M139.5 177 C140.5 186 140.5 195 138.5 203" fill="none" stroke="#d9cfc1" stroke-width="1" stroke-linecap="round" /><path fill="url(#hero-xiaoping-h)" d="M140 179 C150 176 160 178 165 184 C169 189 168 196 163 199 C157 202 149 202 142 200 C144 193 144 186 140 179 Z" /><path d="M150 184 C153 188 154 193 153 198 M156.5 185.5 C159.5 189 160.5 193 159.5 197.5" fill="none" stroke="#dcbfa9" stroke-width="1.2" stroke-linecap="round" /><ellipse cx="112" cy="181" rx="44" ry="6" fill="#56617a" opacity=".3" filter="url(#hero-xiaoping-soft)" /><path fill="url(#hero-xiaoping-sf)" d="M224 218 C222 200 206 188 182 186 C156 184 126 184 104 187 L104 214 C130 216 170 218 224 218 Z" /><path d="M160 189 C152 194 148 202 147 212" fill="none" stroke="#56617a" stroke-width="1.4" stroke-linecap="round" opacity=".45" /><path d="M190 190 C184 196 181 204 181 214" fill="none" stroke="#56617a" stroke-width="1.4" stroke-linecap="round" opacity=".45" /><path d="M106 186 C99 185 92 187 88 190 C85 199 85 207 88 213 C94 215 101 215 106 213 C104 205 104 194 106 186 Z" fill="#efe8dd" /><path d="M100.5 187 C99.5 196 99.5 205 100.5 213.5 M96 188 C95 197 95 206 96 214 M91.5 189 C90.5 198 90.5 206 91.5 213" fill="none" stroke="#d9cfc1" stroke-width="1" stroke-linecap="round" /><path fill="url(#hero-xiaoping-h)" d="M90 190 C80 187 69 189 64 195 C60 200 61 206 66 209 C72 212 81 212 89 210 C87 203 87 196 90 190 Z" /><path d="M79 194 C76 198 75 203 76 208 M72 196 C69 199 68 203 69 207" fill="none" stroke="#dcbfa9" stroke-width="1.2" stroke-linecap="round" /></g></g><g transform="translate(170 112)"><path d="M0 -7 l1.8 5.2 5.2 1.8 -5.2 1.8 -1.8 5.2 -1.8 -5.2 -5.2 -1.8 5.2 -1.8 Z" fill="#f3d7a8" /></g><g transform="translate(186 92) scale(.6)"><path d="M0 -7 l1.8 5.2 5.2 1.8 -5.2 1.8 -1.8 5.2 -1.8 -5.2 -5.2 -1.8 5.2 -1.8 Z" fill="#f3d7a8" /></g></g><g transform="translate(640 18) scale(1.04)"><defs><radialGradient id="hero-hime-f" cx="42%" cy="40%" r="70%"><stop offset="0%" stop-color="#fffaf5" /><stop offset="100%" stop-color="#f6ece2" /></radialGradient><linearGradient id="hero-hime-s" x1="0" y1="0" x2="0" y2="1"><stop offset="0%" stop-color="#746e82" /><stop offset="100%" stop-color="#5a5468" /></linearGradient><linearGradient id="hero-hime-sf" x1="0" y1="0" x2="0" y2="1"><stop offset="0%" stop-color="#7c768a" /><stop offset="100%" stop-color="#625c70" /></linearGradient><linearGradient id="hero-hime-h" x1="0" y1="0" x2="0" y2="1"><stop offset="0%" stop-color="#fffaf5" /><stop offset="100%" stop-color="#f0dccb" /></linearGradient><clipPath id="hero-hime-face-clip"><ellipse cx="100" cy="127" rx="57" ry="52" /></clipPath><filter id="hero-hime-soft-edge" x="-20%" y="-30%" width="140%" height="160%"><feGaussianBlur stdDeviation="0.8" /></filter><filter id="hero-hime-soft" x="-20%" y="-50%" width="140%" height="200%"><feGaussianBlur stdDeviation="3" /></filter></defs><g><g><g><g><path d="M20 120 C14 54 56 20 102 20 C152 20 190 56 182 124 C180 156 188 182 196 214 L6 214 C16 182 24 156 20 120 Z" fill="#3d4559" /></g></g><g><ellipse cx="100" cy="127" rx="57" ry="52" fill="url(#hero-hime-f)" /></g><g><ellipse cx="64" cy="153" rx="12" ry="7" fill="#f5c3ba" opacity="0.85" filter="url(#hero-hime-soft-edge)" /><ellipse cx="136" cy="153" rx="12" ry="7" fill="#f5c3ba" opacity="0.85" filter="url(#hero-hime-soft-edge)" /></g><g><g><rect x="72.5" y="112" width="12.5" height="33" rx="6.25" fill="#2b221e" /><rect x="115" y="112" width="12.5" height="33" rx="6.25" fill="#2b221e" /></g><g display="none"><path d="M71 132 Q79 120 87 132" /><path d="M114 132 Q122 120 130 132" /></g></g><g><path d="M32 110 C28 56 62 30 102 30 C146 30 174 58 170 112 C158 92 134 82 104 82 C76 82 50 92 32 110 Z" fill="#4d566c" /></g><g><path clip-path="url(#hero-hime-face-clip)" d="M50 100 C72 112 130 112 152 102 L150 116 C128 124 74 124 52 114 Z" fill="#f0dccb" opacity=".3" filter="url(#hero-hime-soft-edge)" /><path d="M32 110 C46 90 74 82 104 82 C134 82 158 92 170 112 C162 106 154 104 146 106 C138 100 128 102 120 104 C112 100 102 102 96 104 C88 100 78 102 70 106 C62 102 52 104 46 108 C40 106 36 108 32 110 Z" fill="#4d566c" /><g><g transform="translate(0 -9)"><path d="M32 108 C34 90 46 80 64 78 L138 78 C156 80 166 90 168 108 C162 114 156 116 150 112 C144 117 138 113 132 117 C126 113 120 118 114 113 C108 118 100 113 94 117 C88 113 82 118 76 113 C70 117 64 113 58 116 C52 112 46 116 40 112 C36 114 34 112 32 108 Z" fill="#4d566c" /><path d="M64 84 L70 112 L74 84 Z M98 84 L100 112 L104 84 Z M130 84 L130 112 L136 84 Z" fill="#444c61" /></g></g></g><g><g><path d="M36 96 C44 98 52 100 58 104 C58 130 60 156 62 178 L32 178 C32 150 32 122 36 96 Z" fill="#4d566c" /><path d="M50 108 C50 130 51 152 53 174 L48 174 C47 152 47 130 50 108 Z" fill="#444c61" /></g><g><g transform="translate(200 0) scale(-1 1)"><path d="M36 96 C44 98 52 100 58 104 C58 130 60 156 62 178 L32 178 C32 150 32 122 36 96 Z" fill="#4d566c" /><path d="M50 108 C50 130 51 152 53 174 L48 174 C47 152 47 130 50 108 Z" fill="#444c61" /></g></g></g><g><g transform="translate(152 84)"><g><ellipse cx="0" cy="-6.5" rx="4.2" ry="6.5" fill="#fffaf3" transform="rotate(0)" /><ellipse cx="0" cy="-6.5" rx="4.2" ry="6.5" fill="#fffaf3" transform="rotate(72)" /><ellipse cx="0" cy="-6.5" rx="4.2" ry="6.5" fill="#fffaf3" transform="rotate(144)" /><ellipse cx="0" cy="-6.5" rx="4.2" ry="6.5" fill="#fffaf3" transform="rotate(216)" /><ellipse cx="0" cy="-6.5" rx="4.2" ry="6.5" fill="#fffaf3" transform="rotate(288)" /><circle r="2.6" fill="#e6c36c" /></g></g><g transform="translate(166 98) scale(.7)"><g><ellipse cx="0" cy="-6.5" rx="4.2" ry="6.5" fill="#fffaf3" transform="rotate(0)" /><ellipse cx="0" cy="-6.5" rx="4.2" ry="6.5" fill="#fffaf3" transform="rotate(72)" /><ellipse cx="0" cy="-6.5" rx="4.2" ry="6.5" fill="#fffaf3" transform="rotate(144)" /><ellipse cx="0" cy="-6.5" rx="4.2" ry="6.5" fill="#fffaf3" transform="rotate(216)" /><ellipse cx="0" cy="-6.5" rx="4.2" ry="6.5" fill="#fffaf3" transform="rotate(288)" /><circle r="2.6" fill="#e6c36c" /></g></g><g transform="translate(160 70) scale(.6)"><g><ellipse cx="0" cy="-6.5" rx="4.2" ry="6.5" fill="#fffaf3" transform="rotate(0)" /><ellipse cx="0" cy="-6.5" rx="4.2" ry="6.5" fill="#fffaf3" transform="rotate(72)" /><ellipse cx="0" cy="-6.5" rx="4.2" ry="6.5" fill="#fffaf3" transform="rotate(144)" /><ellipse cx="0" cy="-6.5" rx="4.2" ry="6.5" fill="#fffaf3" transform="rotate(216)" /><ellipse cx="0" cy="-6.5" rx="4.2" ry="6.5" fill="#fffaf3" transform="rotate(288)" /><circle r="2.6" fill="#e6c36c" /></g></g></g></g><g><path fill="url(#hero-hime-s)" d="M-4 216 C0 196 18 184 44 180 C72 176 104 174 126 176 L124 204 C100 208 60 212 30 216 Z" /><path d="M60 182 C70 188 76 196 78 206" fill="none" stroke="#48435a" stroke-width="1.4" stroke-linecap="round" opacity=".45" /><path d="M96 178 C102 184 106 192 106 201" fill="none" stroke="#48435a" stroke-width="1.4" stroke-linecap="round" opacity=".45" /><path d="M124 175 C131 173 138 174 142 177 C145 186 145 196 141 203 C135 205 128 205 123 203 C126 194 126 184 124 175 Z" fill="#efe8dd" /><path d="M130 176 C131 185 131 194 129 203 M135 176 C136 185 136 194 134 204 M139.5 177 C140.5 186 140.5 195 138.5 203" fill="none" stroke="#d9cfc1" stroke-width="1" stroke-linecap="round" /><path fill="url(#hero-hime-h)" d="M140 179 C150 176 160 178 165 184 C169 189 168 196 163 199 C157 202 149 202 142 200 C144 193 144 186 140 179 Z" /><path d="M150 184 C153 188 154 193 153 198 M156.5 185.5 C159.5 189 160.5 193 159.5 197.5" fill="none" stroke="#dcbfa9" stroke-width="1.2" stroke-linecap="round" /><ellipse cx="112" cy="181" rx="44" ry="6" fill="#48435a" opacity=".3" filter="url(#hero-hime-soft)" /><path fill="url(#hero-hime-sf)" d="M224 218 C222 200 206 188 182 186 C156 184 126 184 104 187 L104 214 C130 216 170 218 224 218 Z" /><path d="M160 189 C152 194 148 202 147 212" fill="none" stroke="#48435a" stroke-width="1.4" stroke-linecap="round" opacity=".45" /><path d="M190 190 C184 196 181 204 181 214" fill="none" stroke="#48435a" stroke-width="1.4" stroke-linecap="round" opacity=".45" /><path d="M106 186 C99 185 92 187 88 190 C85 199 85 207 88 213 C94 215 101 215 106 213 C104 205 104 194 106 186 Z" fill="#efe8dd" /><path d="M100.5 187 C99.5 196 99.5 205 100.5 213.5 M96 188 C95 197 95 206 96 214 M91.5 189 C90.5 198 90.5 206 91.5 213" fill="none" stroke="#d9cfc1" stroke-width="1" stroke-linecap="round" /><path fill="url(#hero-hime-h)" d="M90 190 C80 187 69 189 64 195 C60 200 61 206 66 209 C72 212 81 212 89 210 C87 203 87 196 90 190 Z" /><path d="M79 194 C76 198 75 203 76 208 M72 196 C69 199 68 203 69 207" fill="none" stroke="#dcbfa9" stroke-width="1.2" stroke-linecap="round" /></g></g><ellipse cx="160" cy="70" rx="3.6" ry="5.6" fill="#fffaf3" display="none" /><ellipse cx="170" cy="70" rx="3.6" ry="5.6" fill="#fffaf3" display="none" /><ellipse cx="150" cy="70" rx="3.6" ry="5.6" fill="#fffaf3" display="none" /></g><g transform="translate(865 38) scale(0.92)"><defs><radialGradient id="hero-cat-f" cx="42%" cy="40%" r="70%"><stop offset="0%" stop-color="#e8c2a5" /><stop offset="100%" stop-color="#d8a988" /></radialGradient><linearGradient id="hero-cat-s" x1="0" y1="0" x2="0" y2="1"><stop offset="0%" stop-color="#955755" /><stop offset="100%" stop-color="#7b3f3d" /></linearGradient><linearGradient id="hero-cat-sf" x1="0" y1="0" x2="0" y2="1"><stop offset="0%" stop-color="#9e5f5c" /><stop offset="100%" stop-color="#844644" /></linearGradient><linearGradient id="hero-cat-h" x1="0" y1="0" x2="0" y2="1"><stop offset="0%" stop-color="#e8c2a5" /><stop offset="100%" stop-color="#c99573" /></linearGradient><clipPath id="hero-cat-face-clip"><ellipse cx="100" cy="127" rx="57" ry="52" /></clipPath><filter id="hero-cat-soft-edge" x="-20%" y="-30%" width="140%" height="160%"><feGaussianBlur stdDeviation="0.8" /></filter><filter id="hero-cat-soft" x="-20%" y="-50%" width="140%" height="200%"><feGaussianBlur stdDeviation="3" /></filter></defs><g><path d="M200 214 C222 170 226 110 206 80 C198 70 184 76 190 88 C210 118 206 170 184 214 Z" fill="#e6e3de" /><path d="M206 80 C198 70 184 76 190 88 C194 92 202 90 204 84 Z" fill="#cfcac2" /></g><g><g><g><g><path d="M24 160 C12 128 14 86 28 62 C46 34 72 24 102 24 C134 24 160 34 176 60 C190 86 192 128 180 160 C170 156 166 150 164 144 C150 186 50 186 36 144 C34 150 30 156 24 160 Z" fill="#dad6cf" /></g></g><g><g><path d="M36 76 L26 2 L88 44 Z" fill="#e6e3de" /><path d="M44 64 L38 18 L76 44 Z" fill="#efd3cb" /><path d="M42 62 l6 -12 l3 9 l6 -10 l2 10 l7 -7 l-2 10 Z" fill="#fbf7f2" /></g><g><g transform="translate(200 0) scale(-1 1)"><path d="M36 76 L26 2 L88 44 Z" fill="#e6e3de" /><path d="M44 64 L38 18 L76 44 Z" fill="#efd3cb" /><path d="M42 62 l6 -12 l3 9 l6 -10 l2 10 l7 -7 l-2 10 Z" fill="#fbf7f2" /></g></g></g><g><ellipse cx="100" cy="127" rx="57" ry="52" fill="url(#hero-cat-f)" /></g><g><ellipse cx="64" cy="153" rx="12" ry="7" fill="#f5c3ba" opacity="0.6" filter="url(#hero-cat-soft-edge)" /><ellipse cx="136" cy="153" rx="12" ry="7" fill="#f5c3ba" opacity="0.6" filter="url(#hero-cat-soft-edge)" /></g><g><g><rect x="72.5" y="112" width="12.5" height="33" rx="6.25" fill="#2b221e" /><rect x="115" y="112" width="12.5" height="33" rx="6.25" fill="#2b221e" /></g><g display="none"><path d="M71 132 Q79 120 87 132" /><path d="M114 132 Q122 120 130 132" /></g></g><g><path d="M32 110 C28 56 62 30 102 30 C146 30 174 58 170 112 C158 92 134 82 104 82 C76 82 50 92 32 110 Z" fill="#e6e3de" /></g><g><path clip-path="url(#hero-cat-face-clip)" d="M50 100 C72 112 130 112 152 102 L150 116 C128 124 74 124 52 114 Z" fill="#f0dccb" opacity=".3" filter="url(#hero-cat-soft-edge)" /><path d="M32 110 C46 90 74 82 104 82 C134 82 158 92 170 112 C162 106 154 104 146 106 C138 100 128 102 120 104 C112 100 102 102 96 104 C88 100 78 102 70 106 C62 102 52 104 46 108 C40 106 36 108 32 110 Z" fill="#e6e3de" /><g><path d="M40 96 C52 108 56 128 50 150 C46 132 38 122 26 118 C28 108 34 100 40 96 Z" fill="#e6e3de" /><path d="M58 80 C72 94 76 114 70 136 C64 120 56 112 44 108 C46 96 52 86 58 80 Z" fill="#e6e3de" /></g><g><path d="M96 76 C104 94 104 120 98 146 C96 124 92 110 86 100 Z" fill="#cdc7bf" /><path d="M92 70 C104 90 104 120 96 152 C92 128 86 112 76 102 C80 90 86 78 92 70 Z" fill="#e6e3de" /><path d="M110 70 C124 84 128 102 122 124 C116 110 108 102 98 98 C102 88 106 78 110 70 Z" fill="#e6e3de" /></g><g><path d="M132 76 C148 88 154 108 148 130 C142 116 134 108 122 104 C124 94 128 84 132 76 Z" fill="#e6e3de" /><path d="M150 90 C164 102 168 122 162 144 C156 130 148 122 138 118 C140 108 146 98 150 90 Z" fill="#e6e3de" /></g></g><g><g><path d="M40 100 C28 116 22 136 26 158 C20 152 14 144 10 134 C10 146 14 156 22 164 C12 164 4 156 2 146 C0 124 16 106 40 100 Z" fill="#e6e3de" /></g><g><g transform="translate(200 0) scale(-1 1)"><path d="M40 100 C28 116 22 136 26 158 C20 152 14 144 10 134 C10 146 14 156 22 164 C12 164 4 156 2 146 C0 124 16 106 40 100 Z" fill="#e6e3de" /></g></g></g><g><g><path d="M98 32 C94 14 104 4 118 6 C108 10 104 20 106 32 Z" fill="#e6e3de" /></g></g></g><g><path fill="url(#hero-cat-s)" d="M-4 216 C0 196 18 184 44 180 C72 176 104 174 126 176 L124 204 C100 208 60 212 30 216 Z" /><path d="M60 182 C70 188 76 196 78 206" fill="none" stroke="#5f302f" stroke-width="1.4" stroke-linecap="round" opacity=".45" /><path d="M96 178 C102 184 106 192 106 201" fill="none" stroke="#5f302f" stroke-width="1.4" stroke-linecap="round" opacity=".45" /><path d="M124 175 C131 173 138 174 142 177 C145 186 145 196 141 203 C135 205 128 205 123 203 C126 194 126 184 124 175 Z" fill="#efe8dd" /><path d="M130 176 C131 185 131 194 129 203 M135 176 C136 185 136 194 134 204 M139.5 177 C140.5 186 140.5 195 138.5 203" fill="none" stroke="#d9cfc1" stroke-width="1" stroke-linecap="round" /><path fill="url(#hero-cat-h)" d="M140 179 C150 176 160 178 165 184 C169 189 168 196 163 199 C157 202 149 202 142 200 C144 193 144 186 140 179 Z" /><path d="M150 184 C153 188 154 193 153 198 M156.5 185.5 C159.5 189 160.5 193 159.5 197.5" fill="none" stroke="#dcbfa9" stroke-width="1.2" stroke-linecap="round" /><ellipse cx="112" cy="181" rx="44" ry="6" fill="#5f302f" opacity=".3" filter="url(#hero-cat-soft)" /><path fill="url(#hero-cat-sf)" d="M224 218 C222 200 206 188 182 186 C156 184 126 184 104 187 L104 214 C130 216 170 218 224 218 Z" /><path d="M160 189 C152 194 148 202 147 212" fill="none" stroke="#5f302f" stroke-width="1.4" stroke-linecap="round" opacity=".45" /><path d="M190 190 C184 196 181 204 181 214" fill="none" stroke="#5f302f" stroke-width="1.4" stroke-linecap="round" opacity=".45" /><path d="M106 186 C99 185 92 187 88 190 C85 199 85 207 88 213 C94 215 101 215 106 213 C104 205 104 194 106 186 Z" fill="#efe8dd" /><path d="M100.5 187 C99.5 196 99.5 205 100.5 213.5 M96 188 C95 197 95 206 96 214 M91.5 189 C90.5 198 90.5 206 91.5 213" fill="none" stroke="#d9cfc1" stroke-width="1" stroke-linecap="round" /><path fill="url(#hero-cat-h)" d="M90 190 C80 187 69 189 64 195 C60 200 61 206 66 209 C72 212 81 212 89 210 C87 203 87 196 90 190 Z" /><path d="M79 194 C76 198 75 203 76 208 M72 196 C69 199 68 203 69 207" fill="none" stroke="#dcbfa9" stroke-width="1.2" stroke-linecap="round" /></g></g></g></svg>
